<?xml version="1.0" encoding="UTF-8" standalone="no"?>
<!DOCTYPE svg PUBLIC "-//W3C//DTD SVG 1.1//EN" "http://www.w3.org/Graphics/SVG/1.1/DTD/svg11.dtd">
<svg width="100%" height="100%" viewBox="0 0 2134 2134" version="1.1" xmlns="http://www.w3.org/2000/svg" xmlns:xlink="http://www.w3.org/1999/xlink" xml:space="preserve" xmlns:serif="http://www.serif.com/" style="fill-rule:evenodd;clip-rule:evenodd;stroke-linejoin:round;stroke-miterlimit:2;">
  <path d="M1754.17,585.417l-0,962.5c-0,113.832 -92.418,206.25 -206.25,206.25l-276.994,-0l-0.09,-491.667l179.167,0c12.156,-3.556 19.158,-11.836 20.833,-25l16.667,-162.5c-0.577,-17.776 -9.252,-27.085 -24.841,-29.167l-191.826,0l0,-166.666c7.064,-35.577 32.117,-52.468 70.834,-62.5l116.802,-0l20.698,-20.834l-0,-150c-2.216,-13.25 -9.289,-20.022 -20.834,-20.833l-166.666,-0c-136.995,15.044 -212.932,91.855 -233.334,224.846l0,195.987l-133.333,0c-16.47,0.197 -23.524,13.976 -25,29.167l-0,166.667c1.511,14.087 11.828,18.962 25,20.833l130.99,0l2.567,491.667l-473.14,-0c-113.833,-0 -206.25,-92.418 -206.25,-206.25l-0,-962.5c-0,-113.833 92.417,-206.25 206.25,-206.25l962.5,-0c113.832,-0 206.25,92.417 206.25,206.25Z" fill="#FFFFFF" /></svg>